<?xml version="1.0" standalone="no"?><svg xmlns="http://www.w3.org/2000/svg" viewBox="0 0 1440 320"><path fill="#0099ff" fill-opacity="1" d="M0,160L40,170.7C80,181,160,203,240,224C320,245,400,267,480,240C560,213,640,139,720,122.7C800,107,880,149,960,186.7C1040,224,1120,256,1200,256C1280,256,1360,224,1400,208L1440,192L1440,320L1400,320C1360,320,1280,320,1200,320C1120,320,1040,320,960,320C880,320,800,320,720,320C640,320,560,320,480,320C400,320,320,320,240,320C160,320,80,320,40,320L0,320Z"></path></svg>