<?xml version="1.0" standalone="no"?><svg xmlns="http://www.w3.org/2000/svg" viewBox="0 0 1440 320"><path fill="#5000ca" fill-opacity="1" d="M0,288L10.4,282.7C20.9,277,42,267,63,261.3C83.5,256,104,256,125,261.3C146.1,267,167,277,188,245.3C208.7,213,230,139,250,112C271.3,85,292,107,313,122.7C333.9,139,355,149,376,170.7C396.5,192,417,224,438,224C459.1,224,480,192,501,149.3C521.7,107,543,53,563,69.3C584.3,85,605,171,626,202.7C647,235,668,213,689,197.3C709.6,181,730,171,751,186.7C772.2,203,793,245,814,272C834.8,299,856,309,877,282.7C897.4,256,918,192,939,149.3C960,107,981,85,1002,69.3C1022.6,53,1043,43,1064,64C1085.2,85,1106,139,1127,181.3C1147.8,224,1169,256,1190,229.3C1210.4,203,1231,117,1252,117.3C1273,117,1294,203,1315,197.3C1335.7,192,1357,96,1377,74.7C1398.3,53,1419,107,1430,133.3L1440,160L1440,0L1429.6,0C1419.1,0,1398,0,1377,0C1356.5,0,1336,0,1315,0C1293.9,0,1273,0,1252,0C1231.3,0,1210,0,1190,0C1168.7,0,1148,0,1127,0C1106.1,0,1085,0,1064,0C1043.5,0,1023,0,1002,0C980.9,0,960,0,939,0C918.3,0,897,0,877,0C855.7,0,835,0,814,0C793,0,772,0,751,0C730.4,0,710,0,689,0C667.8,0,647,0,626,0C605.2,0,584,0,563,0C542.6,0,522,0,501,0C480,0,459,0,438,0C417.4,0,397,0,376,0C354.8,0,334,0,313,0C292.2,0,271,0,250,0C229.6,0,209,0,188,0C167,0,146,0,125,0C104.3,0,83,0,63,0C41.7,0,21,0,10,0L0,0Z"></path></svg>